<svg width="150" height="40" viewBox="0 0 150 40" fill="none" xmlns="http://www.w3.org/2000/svg">
<g clip-path="url(#clip0_70_94)">
<path d="M16.5259 0.0142822H0V39.5365L16.5259 0.0142822Z" fill="#FA0C00"/>
<path d="M28.1533 0.0142822H44.6577V39.5365L28.1533 0.0142822Z" fill="#FA0C00"/>
<path d="M22.3396 14.5808L32.858 39.5366H25.957L22.8133 31.5912H15.1156L22.3396 14.5808Z" fill="#FA0C00"/>
<path d="M71.6185 25.1478L73.5671 30.7354C73.6317 30.8753 73.7286 30.9399 73.9009 30.9399H77.6475C77.852 30.9399 77.8843 30.843 77.852 30.6385L70.1112 9.13864C70.0789 8.96638 70.0466 8.93408 69.8743 8.93408H65.2234C65.0942 8.93408 65.0188 9.03098 65.0188 9.17093C64.9542 10.3014 64.8574 10.6459 64.7174 10.9796L57.8163 30.6062C57.784 30.843 57.8594 30.9399 58.0532 30.9399H61.4015C61.606 30.9399 61.7029 30.8753 61.7783 30.6708L63.6193 25.1478H71.6185ZM64.6851 21.4981C65.6971 18.4405 67.0321 14.5217 67.5704 12.2823H67.6027C68.2702 14.6293 69.8421 19.2803 70.5526 21.4981H64.6851Z" fill="#FA0C00"/>
<path d="M87.8034 31.2737C89.8166 31.2737 91.9591 30.9077 94.1338 29.971C94.3061 29.9064 94.3384 29.8311 94.3384 29.6696C94.2738 29.0667 94.1984 28.1946 94.1984 27.5271V7.28693C94.1984 7.15774 94.1984 7.09314 94.0369 7.09314H90.3872C90.2473 7.09314 90.1827 7.15774 90.1827 7.32999V14.188C89.6121 14.1234 89.2137 14.0911 88.74 14.0911C82.851 14.0911 79.2336 17.9776 79.2336 22.8331C79.2336 28.4638 82.9479 31.2737 87.8034 31.2737ZM90.1827 27.5271C89.5798 27.7209 88.9123 27.7963 88.234 27.7963C85.564 27.7963 83.3785 26.289 83.3785 22.6286C83.3785 19.388 85.6286 17.4716 88.6108 17.4716C89.2137 17.4716 89.7413 17.5362 90.1827 17.7085V27.5271Z" fill="#FA0C00"/>
<path d="M105.982 14.0911C100.954 14.0911 97.8425 17.9453 97.8425 22.7039C97.8425 26.9565 100.319 31.2737 105.906 31.2737C110.633 31.2737 113.949 27.7963 113.949 22.5963C113.949 18.0099 111.139 14.0911 105.982 14.0911ZM105.777 17.4716C108.619 17.4716 109.825 19.9155 109.825 22.7039C109.825 26.1491 108.049 27.8609 105.982 27.8609C103.43 27.8609 101.923 25.7184 101.923 22.6286C101.923 19.4526 103.527 17.4716 105.777 17.4716Z" fill="#FA0C00"/>
<path d="M117.722 7.09314C117.582 7.09314 117.485 7.15774 117.485 7.32999V30.2402C117.485 30.3371 117.582 30.5093 117.722 30.5416C119.326 31.0369 121.005 31.2737 122.739 31.2737C127.702 31.2737 132.525 28.1946 132.525 21.9934C132.525 17.5039 129.446 14.0911 124.623 14.0911C123.514 14.0911 122.48 14.2633 121.576 14.5648L121.533 7.36229C121.533 7.12544 121.468 7.09314 121.232 7.09314H117.722ZM128.402 22.4025C128.402 26.1168 125.861 27.8609 123.116 27.8609C122.545 27.8609 122.039 27.8286 121.576 27.6886V17.913C122.104 17.7085 122.739 17.5362 123.912 17.5362C126.561 17.5362 128.402 19.2157 128.402 22.4025Z" fill="#FA0C00"/>
<path d="M146.146 23.6083C147.782 23.6083 149.128 23.576 149.591 23.4683C149.763 23.436 149.828 23.3714 149.86 23.2315C149.957 22.8654 150 22.101 150 21.1644C150 17.9776 148.084 14.0911 143.131 14.0911C138.071 14.0911 135.261 18.2145 135.261 22.8654C135.261 26.9888 137.436 31.2737 143.53 31.2737C145.812 31.2737 147.287 30.9077 148.557 30.3048C148.687 30.2402 148.751 30.1325 148.751 29.9387V27.1503C148.751 26.9888 148.654 26.9565 148.557 27.0211C147.287 27.5594 145.909 27.8286 144.402 27.8286C140.989 27.8286 139.438 25.9445 139.342 23.6083H146.146ZM139.342 20.723C139.611 19.0865 140.644 17.3101 142.959 17.3101C145.511 17.3101 146.178 19.4526 146.178 20.4215C146.178 20.4538 146.178 20.5938 146.178 20.6907C146.038 20.723 145.607 20.723 144.337 20.723H139.342Z" fill="#FA0C00"/>
</g>
<defs>
<clipPath id="clip0_70_94">
<rect width="150" height="39.5508" fill="white"/>
</clipPath>
</defs>
</svg>
