<svg width="150" height="47" viewBox="0 0 150 47" fill="none" xmlns="http://www.w3.org/2000/svg">
<g clip-path="url(#clip0_70_84)">
<path d="M79.0534 11.8088C79.0534 13.5025 77.6945 14.8669 76.0075 14.8669C74.3205 14.8669 72.9616 13.5025 72.9616 11.8088C72.9616 10.1151 74.2737 8.75075 76.0075 8.75075C77.7413 8.7978 79.0534 10.1622 79.0534 11.8088ZM66.4948 17.972C66.4948 18.2543 66.4948 18.7247 66.4948 18.7247C66.4948 18.7247 65.0422 16.8428 61.9494 16.8428C56.8416 16.8428 52.8585 20.7477 52.8585 26.1582C52.8585 31.5215 56.7947 35.4735 61.9494 35.4735C65.089 35.4735 66.4948 33.5445 66.4948 33.5445V34.3443C66.4948 34.7207 66.776 35.003 67.1509 35.003H70.9466V17.3133C70.9466 17.3133 67.4789 17.3133 67.1509 17.3133C66.776 17.3133 66.4948 17.6426 66.4948 17.972ZM66.4948 29.3103C65.7919 30.3453 64.3861 31.2392 62.6992 31.2392C59.7001 31.2392 57.4039 29.3574 57.4039 26.1582C57.4039 22.959 59.7001 21.0771 62.6992 21.0771C64.3393 21.0771 65.8388 22.018 66.4948 23.006V29.3103ZM73.7582 17.3133H78.2568V35.003H73.7582V17.3133ZM140.956 16.8428C137.863 16.8428 136.41 18.7247 136.41 18.7247V8.7978H131.912V35.003C131.912 35.003 135.38 35.003 135.708 35.003C136.082 35.003 136.364 34.6737 136.364 34.3443V33.5445C136.364 33.5445 137.816 35.4735 140.909 35.4735C146.017 35.4735 150 31.5215 150 26.1582C150 20.7948 146.017 16.8428 140.956 16.8428ZM140.206 31.1922C138.472 31.1922 137.113 30.2983 136.41 29.2633V22.959C137.113 22.018 138.613 21.03 140.206 21.03C143.205 21.03 145.501 22.9119 145.501 26.1111C145.501 29.3103 143.205 31.1922 140.206 31.1922ZM129.569 24.5115V35.05H125.07V25.029C125.07 22.1121 124.133 20.9359 121.603 20.9359C120.244 20.9359 118.838 21.6416 117.948 22.6767V35.003H113.449V17.3133H117.01C117.385 17.3133 117.666 17.6426 117.666 17.972V18.7247C118.978 17.3604 120.712 16.8428 122.446 16.8428C124.414 16.8428 126.054 17.4074 127.366 18.5365C128.96 19.8539 129.569 21.5475 129.569 24.5115ZM102.53 16.8428C99.4377 16.8428 97.985 18.7247 97.985 18.7247V8.7978H93.4864V35.003C93.4864 35.003 96.9541 35.003 97.2821 35.003C97.657 35.003 97.9381 34.6737 97.9381 34.3443V33.5445C97.9381 33.5445 99.3908 35.4735 102.484 35.4735C107.591 35.4735 111.575 31.5215 111.575 26.1582C111.621 20.7948 107.638 16.8428 102.53 16.8428ZM101.781 31.1922C100.047 31.1922 98.6879 30.2983 97.985 29.2633V22.959C98.6879 22.018 100.187 21.03 101.781 21.03C104.78 21.03 107.076 22.9119 107.076 26.1111C107.076 29.3103 104.78 31.1922 101.781 31.1922ZM89.597 16.8428C90.9559 16.8428 91.6589 17.0781 91.6589 17.0781V21.2653C91.6589 21.2653 87.91 19.995 85.567 22.6767V35.05H81.0684V17.3133C81.0684 17.3133 84.5361 17.3133 84.8641 17.3133C85.239 17.3133 85.5201 17.6426 85.5201 17.972V18.7247C86.3636 17.7367 88.1912 16.8428 89.597 16.8428ZM42.8772 33.4034C42.6429 32.8388 42.4086 32.2272 42.1743 31.7097C41.7994 30.8629 41.4245 30.0631 41.0965 29.3103L41.0497 29.2633C37.8163 22.2062 34.3486 15.0551 30.6935 7.998L30.5529 7.71572C30.1781 7.01001 29.8032 6.25726 29.4283 5.5045C28.9597 4.65766 28.4911 3.76376 27.7413 2.91692C26.2418 1.03503 24.0862 0 21.7901 0C19.447 0 17.3383 1.03504 15.7919 2.82282C15.089 3.66967 14.5736 4.56356 14.105 5.41041C13.7301 6.16316 13.3552 6.91592 12.9803 7.62162L12.8397 7.9039C9.23149 14.961 5.71696 22.1121 2.4836 29.1692L2.43674 29.2633C2.10871 30.016 1.73383 30.8158 1.35895 31.6627C1.12465 32.1802 0.890346 32.7447 0.656044 33.3564C0.0468591 35.0971 -0.140582 36.7437 0.0937195 38.4374C0.609183 41.966 2.9522 44.9299 6.18557 46.2472C7.40393 46.7648 8.66916 47 9.98125 47C10.3561 47 10.8247 46.9529 11.1996 46.9059C12.746 46.7177 14.3393 46.2002 15.8857 45.3063C17.8069 44.2242 19.6345 42.6717 21.6963 40.4134C23.7582 42.6717 25.6326 44.2242 27.507 45.3063C29.0534 46.2002 30.6467 46.7177 32.1931 46.9059C32.5679 46.9529 33.0365 47 33.4114 47C34.7235 47 36.0356 46.7648 37.2071 46.2472C40.4873 44.9299 42.7835 41.9189 43.299 38.4374C43.6739 36.7908 43.4864 35.1441 42.8772 33.4034ZM21.7432 35.8498C19.2127 32.6507 17.5726 29.6396 17.0103 27.0991C16.776 26.017 16.7291 25.0761 16.8697 24.2292C16.9634 23.4765 17.2446 22.8178 17.6195 22.2533C18.5098 20.983 20.0094 20.1832 21.7432 20.1832C23.477 20.1832 25.0234 20.9359 25.8669 22.2533C26.2418 22.8178 26.523 23.4765 26.6167 24.2292C26.7573 25.0761 26.7104 26.0641 26.4761 27.0991C25.9138 29.5926 24.2737 32.6036 21.7432 35.8498ZM40.4405 38.0611C40.1125 40.5075 38.4723 42.6246 36.1762 43.5656C35.0515 44.036 33.8332 44.1772 32.6148 44.036C31.4433 43.8949 30.2718 43.5185 29.0534 42.8128C27.3664 41.8719 25.6795 40.4134 23.7113 38.2492C26.8041 34.4384 28.6785 30.957 29.3814 27.8519C29.7095 26.3934 29.7563 25.0761 29.6157 23.8529C29.4283 22.6767 29.0066 21.5946 28.3505 20.6537C26.8978 18.5365 24.4611 17.3133 21.7432 17.3133C19.0253 17.3133 16.5886 18.5836 15.1359 20.6537C14.4798 21.5946 14.0581 22.6767 13.8707 23.8529C13.6832 25.0761 13.7301 26.4404 14.105 27.8519C14.8079 30.957 16.7291 34.4855 19.7751 38.2963C17.8538 40.4605 16.12 41.9189 14.433 42.8599C13.2146 43.5656 12.0431 43.9419 10.8716 44.0831C9.60637 44.2242 8.388 44.036 7.31021 43.6126C5.01406 42.6717 3.37394 40.5546 3.04592 38.1081C2.90534 36.9319 2.99906 35.7558 3.46766 34.4384C3.60825 33.968 3.84255 33.4975 4.07685 32.9329C4.40487 32.1802 4.77976 31.3804 5.15464 30.5806L5.2015 30.4865C8.43486 23.4765 11.9025 16.3253 15.5108 9.36236L15.6514 9.08008C16.0262 8.37437 16.4011 7.62162 16.776 6.91592C17.1509 6.16316 17.5726 5.45746 18.0881 4.84585C19.0722 3.71672 20.3843 3.1051 21.8369 3.1051C23.2896 3.1051 24.6017 3.71672 25.5858 4.84585C26.1012 5.45746 26.523 6.16316 26.8978 6.91592C27.2727 7.62162 27.6476 8.37437 28.0225 9.08008L28.1631 9.36236C31.7245 16.3724 35.1921 23.5235 38.4255 30.5335V30.5806C38.8004 31.3333 39.1284 32.1802 39.5033 32.9329C39.7376 33.4975 39.9719 33.968 40.1125 34.4384C40.4873 35.6617 40.6279 36.8378 40.4405 38.0611Z" fill="#FF385C"/>
</g>
<defs>
<clipPath id="clip0_70_84">
<rect width="150" height="47" fill="white"/>
</clipPath>
</defs>
</svg>
