<svg width="160" height="29" viewBox="0 0 160 29" fill="none" xmlns="http://www.w3.org/2000/svg">
<path d="M12.6554 12.6048C15.3672 11.9144 18.4181 9.95815 18.4181 6.62102C18.4181 1.67286 13.7853 1.67286 11.4124 1.67286H1.69492C2.14689 1.90301 2.37288 3.16882 2.37288 4.89492C2.37288 6.96624 2.25989 9.84308 1.9209 13.7556L1.80791 15.3666C1.35593 22.1559 1.12994 26.0684 0 26.989H8.70056C15.3672 26.989 19.435 23.5368 19.435 19.0489C19.548 14.9063 16.6102 13.0651 12.6554 12.6048ZM6.89266 10.0732C7.00565 8.23205 7.23164 6.39087 7.45763 4.66477C8.0226 4.5497 8.70057 4.5497 9.15254 4.5497C12.0904 4.5497 13.4463 5.81551 13.4463 7.54161C13.4463 10.5335 10.5085 11.6842 7.34463 11.6842H6.77966L6.89266 10.0732ZM8.47458 23.767C6.77966 23.767 6.1017 23.3067 6.1017 23.0765C6.1017 21.4655 6.21469 20.1997 6.32768 18.4736L6.55367 14.7912H8.36158C11.6384 14.7912 14.2373 15.8269 14.2373 19.164C14.2373 22.1559 11.9774 23.767 8.47458 23.767ZM154.463 12.2596C151.977 10.6486 149.605 9.26771 149.605 7.42653C149.605 5.12506 151.525 4.20448 153.672 4.20448C156.158 4.20448 158.305 5.70043 159.322 7.54161L160 1.55779C158.305 1.55779 156.61 1.0975 153.898 1.0975C149.266 1.0975 144.746 2.93867 144.746 8.34712C144.746 12.0295 147.345 13.9857 151.412 16.5173C153.333 17.6681 154.915 18.9339 154.915 20.7751C154.915 23.0765 152.994 24.3423 150.395 24.3423C147.006 24.3423 144.746 22.3861 143.503 19.7394L143.051 26.0684C145.65 27.1041 147.91 27.4493 150.057 27.4493C155.367 27.4493 159.887 24.4574 159.887 19.7394C159.887 16.057 157.175 13.9857 154.463 12.2596ZM136.723 13.2953C137.966 11.224 143.729 1.90301 145.085 1.67286H138.418C138.644 1.90301 138.757 2.59345 138.757 3.16882C138.757 3.97433 138.418 4.66477 138.079 5.35521C136.497 7.88683 135.367 9.84307 133.559 12.4898C132.881 10.4184 131.638 7.65668 130.056 3.85926C129.04 1.55779 128.588 1.32764 126.893 1.32764C125.989 1.32764 123.955 1.44272 122.486 1.55779C123.39 2.01808 124.746 4.20448 125.989 6.50595C127.91 10.1883 129.153 13.2953 130.056 16.5173C130.169 18.7037 129.605 25.8383 128.475 26.989H135.254C134.689 26.4136 134.576 24.9177 134.576 23.767C134.576 21.0052 134.802 18.4736 135.141 16.6324C135.367 15.5967 136.158 14.3309 136.723 13.2953ZM63.6158 22.7313L58.5311 15.8269C58.1921 15.3666 57.6271 14.5611 57.2881 14.3309C60.565 13.2953 63.2768 11.1089 63.2768 7.08131C63.2768 2.13316 59.096 1.67286 56.1582 1.67286H46.8927C47.3446 1.90301 47.5706 3.05374 47.5706 4.89492C47.5706 6.96624 47.4576 9.84308 47.1186 13.7556L47.0056 15.3666C46.4407 23.1916 46.1017 26.1835 45.0847 26.989H51.8644C51.4124 26.7589 51.1864 25.4931 51.1864 23.767C51.1864 22.271 51.2994 20.1997 51.4124 17.553L51.5254 15.7118H51.6384C52.5424 15.7118 52.8814 16.2872 53.4463 16.9776L60.452 26.8739C61.0169 27.6795 61.4689 28.0247 63.3898 28.0247C64.6328 28.0247 66.5537 27.9096 67.9096 27.7945C67.1186 27.2192 66.7797 26.989 63.6158 22.7313ZM53.1073 12.4898C52.7684 12.4898 52.3164 12.4898 51.9774 12.3747L52.0904 10.6486C52.3164 7.65668 52.4294 5.70043 52.6554 4.66477C53.2203 4.5497 54.0113 4.5497 54.5763 4.5497C56.9492 4.5497 58.3051 5.70043 58.3051 7.65668C58.3051 10.6486 56.1582 12.4898 53.1073 12.4898ZM39.209 15.5967L38.1921 11.6842C36.9492 7.08131 35.4802 1.67286 35.4802 1.67286H30.0565C30.2825 1.90301 30.3955 2.47838 30.3955 3.05374C30.3955 3.62911 28.7006 7.42653 27.1186 10.8787L25.4237 14.6762C22.3729 21.2353 20.226 25.2629 18.5311 26.989H24.5198C24.4068 26.7589 24.4068 26.1835 24.4068 25.8383C24.4068 24.4574 25.6497 22.0409 26.1017 20.8901L26.6667 19.8545H29.6045C32.5424 19.8545 34.3503 19.5092 35.4802 19.0489L36.0452 21.2353C37.7401 27.2192 37.9661 27.3342 40.113 27.3342C40.791 27.3342 42.4859 27.2192 43.9548 27.1041C42.2599 25.6081 41.1299 22.3861 39.209 15.5967ZM28.0226 16.2872L32.0904 7.42653L34.5763 16.2872H28.0226ZM71.8644 15.0214C71.8644 9.95815 74.0113 4.0894 79.322 4.0894C82.0339 4.0894 84.0678 5.58536 85.1977 7.88683L85.8757 1.44272C83.7288 1.44272 82.4859 0.982422 79.774 0.982422C71.1864 0.982422 66.6667 7.54161 66.6667 15.942C66.6667 22.0409 70.3955 27.4493 76.8362 27.4493C81.8079 27.4493 84.7458 24.9177 86.1017 20.66C82.9379 22.9614 81.017 23.5368 78.8701 23.5368C74.9153 23.5368 71.8644 20.5449 71.8644 15.0214ZM120.339 15.5967L119.322 11.6842C118.87 9.95815 116.61 1.67286 116.61 1.67286H111.186C111.412 1.90301 111.525 2.47838 111.525 3.05374C111.525 3.74418 109.944 7.31146 108.249 10.8787L106.554 14.6762C105.311 17.553 103.955 20.1997 102.712 22.3861C100.791 23.6519 99.774 23.767 95.7062 23.767C94.5763 23.767 94.1243 23.5368 94.1243 22.3861C94.1243 19.8545 94.4633 17.3228 94.5763 14.7912L94.6893 13.2953C95.1412 6.50595 95.4802 2.3633 96.4972 1.78794H89.7175C90.1695 2.3633 90.2825 3.28389 90.3955 5.00999C90.3955 7.08131 90.2825 9.95815 89.9435 13.8706L89.8305 15.4817C89.3785 22.271 89.0396 25.9534 88.0226 27.1041H105.65C105.537 26.8739 105.537 26.2986 105.537 25.9534C105.537 24.5725 106.554 22.6162 107.232 21.0052L107.797 19.9695H110.734C113.672 19.9695 115.48 19.6243 116.61 19.164L117.175 21.3504C118.87 27.3342 119.096 27.4493 121.243 27.4493C121.921 27.4493 123.729 27.3342 125.085 27.2192C123.277 25.6081 122.147 22.3861 120.339 15.5967ZM109.153 16.2872L113.22 7.42653L115.706 16.2872H109.153Z" fill="#00AEEF"/>
</svg>
