<svg width="45" height="45" viewBox="0 0 45 45" fill="none" xmlns="http://www.w3.org/2000/svg">
<path d="M35.3886 20.0026C28.2465 15.7564 16.4657 15.366 9.64761 17.4376C8.55268 17.77 7.39492 17.1513 7.06316 16.0552C6.7314 14.9586 7.34883 13.8003 8.44447 13.4671C16.2712 11.0885 29.2818 11.5481 37.504 16.4343C38.489 17.0194 38.8121 18.2926 38.2281 19.2772C37.6439 20.2629 36.371 20.5879 35.3886 20.0026ZM35.1547 26.2918C34.6539 27.1059 33.5908 27.361 32.7788 26.8614C26.8243 23.1972 17.7446 22.1358 10.7 24.2764C9.78651 24.5528 8.8216 24.0372 8.54422 23.1243C8.26886 22.2097 8.78419 21.2455 9.69608 20.9674C17.7435 18.5228 27.7475 19.7069 34.5864 23.9144C35.3984 24.4149 35.654 25.4798 35.1547 26.2918ZM32.4435 32.3319C32.0456 32.9854 31.1952 33.1903 30.5449 32.792C25.3417 29.6085 18.7928 28.8893 11.0802 30.6531C10.3368 30.8237 9.59622 30.3573 9.42663 29.6135C9.25642 28.8694 9.72037 28.1281 10.4653 27.9583C18.9054 26.0266 26.1454 26.858 31.9855 30.4307C32.6367 30.8287 32.8417 31.6803 32.4435 32.3319ZM22.2822 0.338215C10.0454 0.338215 0.125092 10.269 0.125092 22.5194C0.125092 34.7709 10.0454 44.7014 22.2822 44.7014C34.5195 44.7014 44.4392 34.7709 44.4392 22.5194C44.4392 10.269 34.5195 0.338215 22.2822 0.338215Z" fill="#1ED760"/>
</svg>
