<svg width="25" height="27" viewBox="0 0 25 27" fill="none" xmlns="http://www.w3.org/2000/svg">
<path d="M6.75122 6.36712V5.89326C6.75122 4.49921 7.28515 3.87754 8.48265 3.87754C9.19676 3.87754 9.77038 4.01952 10.4128 4.23407C10.4919 4.25896 10.5745 4.24652 10.6387 4.1991C10.7049 4.15169 10.7422 4.07567 10.7422 3.99515V1.10534C10.7422 0.994886 10.6713 0.897148 10.5652 0.864832C9.88653 0.662731 9.01817 0.455065 7.71801 0.455065C4.55386 0.455065 2.8817 2.23875 2.8817 5.61143V6.33719H1.23599C1.09788 6.33719 0.984634 6.44976 0.984634 6.58829V9.5506C0.984634 9.68905 1.09788 9.80181 1.23599 9.80181H2.8817V21.5649C2.8817 21.7035 2.99335 21.8161 3.13146 21.8161H6.55675C6.69513 21.8161 6.80785 21.7035 6.80785 21.5649V9.80181H10.0061L14.9054 21.5618C14.3492 22.7974 13.8024 23.0433 13.0557 23.0433C12.4522 23.0433 11.8167 22.8628 11.1669 22.5069C11.1057 22.4732 11.0335 22.4677 10.9674 22.4881C10.902 22.5114 10.847 22.5599 10.8192 22.6237L9.6582 25.1737C9.6029 25.2941 9.64999 25.4357 9.76588 25.4982C10.9779 26.1553 12.0723 26.4358 13.4243 26.4358C15.9537 26.4358 17.3517 25.2561 18.5844 22.0828L24.5272 6.70934C24.5569 6.632 24.5481 6.54485 24.5008 6.47599C24.4537 6.40818 24.3777 6.36712 24.2947 6.36712H20.7286C20.622 6.36712 20.5262 6.43493 20.4913 6.53532L16.8382 16.9815L12.8369 6.52843C12.8004 6.43122 12.707 6.36712 12.603 6.36712H6.75122Z" fill="#1ED760"/>
</svg>
