<svg width="10" height="21" viewBox="0 0 10 21" fill="none" xmlns="http://www.w3.org/2000/svg">
<path d="M9.61812 4.35209H5.84861V0.493891C5.84861 0.35536 5.73696 0.242788 5.59858 0.242788H2.17355C2.03491 0.242788 1.9222 0.35536 1.9222 0.493891V4.35209H0.275172C0.137059 4.35209 0.0256653 4.46492 0.0256653 4.60345V7.55066C0.0256653 7.68911 0.137059 7.80187 0.275172 7.80187H1.9222V15.4282C1.9222 18.5101 3.4544 20.0725 6.4762 20.0725C7.70492 20.0725 8.72437 19.8185 9.68507 19.2731C9.76312 19.2295 9.81179 19.1452 9.81179 19.0556V16.2491C9.81179 16.1624 9.76655 16.0808 9.69273 16.0353C9.61812 15.9885 9.52525 15.9861 9.44879 16.0239C8.78892 16.3563 8.15101 16.5097 7.43796 16.5097C6.33915 16.5097 5.84861 16.0104 5.84861 14.8907V7.80187H9.61812C9.7565 7.80187 9.86788 7.68911 9.86788 7.55066V4.60345C9.86788 4.46492 9.7565 4.35209 9.61812 4.35209Z" fill="#1ED760"/>
</svg>
