<svg width="16" height="22" viewBox="0 0 16 22" fill="none" xmlns="http://www.w3.org/2000/svg">
<path d="M9.40678 8.81559C5.58118 7.90227 4.89988 7.26118 4.89988 5.91463C4.89988 4.6419 6.09685 3.78581 7.87644 3.78581C9.60152 3.78581 11.3118 4.43609 13.1054 5.77478C13.1596 5.8153 13.2276 5.83146 13.2946 5.82086C13.3615 5.8108 13.4205 5.77425 13.4599 5.71862L15.3279 3.08257C15.4046 2.97423 15.3837 2.82431 15.2803 2.7414C13.1459 1.02686 10.7424 0.193285 7.93306 0.193285C3.80239 0.193285 0.917114 2.67466 0.917114 6.2256C0.917114 10.0333 3.40604 11.3814 7.7071 12.422C11.3679 13.2662 11.9857 13.9734 11.9857 15.2378C11.9857 16.6387 10.7363 17.5096 8.72575 17.5096C6.49293 17.5096 4.67128 16.7566 2.63372 14.9901C2.58319 14.9467 2.51387 14.9266 2.44984 14.9302C2.38264 14.9358 2.32099 14.967 2.27813 15.0187L0.18369 17.5141C0.0958489 17.6177 0.10696 17.7724 0.208295 17.8619C2.57922 19.9807 5.49466 21.1 8.64108 21.1C13.0922 21.1 15.9684 18.665 15.9684 14.8966C15.9684 11.7118 14.0677 9.95043 9.40678 8.81559Z" fill="#1ED760"/>
</svg>
