<svg width="150" height="97" viewBox="0 0 150 97" fill="none" xmlns="http://www.w3.org/2000/svg">
<path d="M52.636 55.0353L54.1777 51.4426C55.8652 52.6891 58.0674 53.3492 60.2684 53.3492C61.8823 53.3492 62.9105 52.7259 62.9105 51.7732C62.8738 49.1331 53.1875 51.1866 53.114 44.5509C53.0772 41.1785 56.0858 38.5752 60.3431 38.5752C62.875 38.5752 65.4069 39.1985 67.2046 40.6287L65.7647 44.2987C64.1103 43.2382 62.0674 42.4986 60.1238 42.4986C58.8027 42.4986 57.9216 43.1219 57.9216 43.9288C57.9583 46.5322 67.7181 45.1019 67.8284 51.445C67.8284 54.8908 64.8921 57.3105 60.7095 57.3105C57.6262 57.3081 54.8015 56.5746 52.636 55.0353Z" fill="white"/>
<path d="M112.148 50.1409C111.38 51.4977 109.923 52.4136 108.251 52.4136C105.779 52.4136 103.775 50.4115 103.775 47.9404C103.775 45.4693 105.778 43.4672 108.251 43.4672C109.923 43.4672 111.38 44.3831 112.148 45.7399L116.433 43.368C114.828 40.5075 111.766 38.5728 108.251 38.5728C103.074 38.5728 98.8762 42.7668 98.8762 47.9404C98.8762 53.114 103.074 57.3081 108.251 57.3081C111.767 57.3081 114.828 55.3733 116.433 52.5128L112.148 50.1409Z" fill="white"/>
<path d="M75.3444 30.7749H69.9865V56.9407H75.3444V30.7749Z" fill="white"/>
<path d="M118.517 30.7749V56.9419H123.875V49.1012L130.223 56.9419H137.07L128.998 47.6281L136.483 38.9388H129.929L123.875 46.1623V30.7749H118.517Z" fill="white"/>
<path d="M91.2279 50.1764C90.4571 51.4597 88.8431 52.4124 87.0453 52.4124C84.5735 52.4124 82.5686 50.4103 82.5686 47.9392C82.5686 45.4681 84.5735 43.466 87.0453 43.466C88.8431 43.466 90.4571 44.4554 91.2279 45.7754V50.1764ZM91.2279 38.9389V41.0659C90.3468 39.5989 88.1826 38.5728 85.9068 38.5728C81.2095 38.5728 77.5037 42.7153 77.5037 47.922C77.5037 53.1287 81.2095 57.3081 85.9068 57.3081C88.1814 57.3081 90.3468 56.2819 91.2267 54.8149V56.9407H96.5833V38.9389H91.2279Z" fill="white"/>
<path d="M19.5478 50.1445C19.5478 51.9703 18.0662 53.4507 16.239 53.4507C14.4118 53.4507 12.9301 51.9703 12.9301 50.1445C12.9301 48.3187 14.4118 46.8383 16.239 46.8383H19.5478V50.1445Z" fill="#E01E5A"/>
<path d="M21.2022 50.1445C21.2022 48.3187 22.6838 46.8383 24.511 46.8383C26.3382 46.8383 27.8199 48.3187 27.8199 50.1445V58.4101C27.8199 60.2358 26.3382 61.7163 24.511 61.7163C22.6838 61.7163 21.2022 60.2358 21.2022 58.4101V50.1445Z" fill="#E01E5A"/>
<path d="M24.511 36.9196C22.6838 36.9196 21.2022 35.4391 21.2022 33.6134C21.2022 31.7876 22.6838 30.3071 24.511 30.3071C26.3382 30.3071 27.8199 31.7876 27.8199 33.6134V36.9196H24.511Z" fill="#36C5F0"/>
<path d="M24.511 38.5728C26.3382 38.5728 27.8198 40.0532 27.8198 41.879C27.8198 43.7048 26.3382 45.1852 24.511 45.1852H16.239C14.4118 45.1852 12.9301 43.7048 12.9301 41.879C12.9301 40.0532 14.4118 38.5728 16.239 38.5728H24.511Z" fill="#36C5F0"/>
<path d="M37.7463 41.879C37.7463 40.0532 39.228 38.5728 41.0552 38.5728C42.8824 38.5728 44.364 40.0532 44.364 41.879C44.364 43.7048 42.8824 45.1852 41.0552 45.1852H37.7463V41.879Z" fill="#2EB67D"/>
<path d="M36.0919 41.8789C36.0919 43.7047 34.6103 45.1852 32.7831 45.1852C30.9559 45.1852 29.4743 43.7047 29.4743 41.8789V33.6134C29.4743 31.7876 30.9559 30.3071 32.7831 30.3071C34.6103 30.3071 36.0919 31.7876 36.0919 33.6134V41.8789Z" fill="#2EB67D"/>
<path d="M32.7831 55.1039C34.6103 55.1039 36.0919 56.5843 36.0919 58.4101C36.0919 60.2359 34.6103 61.7163 32.7831 61.7163C30.9559 61.7163 29.4743 60.2359 29.4743 58.4101V55.1039H32.7831Z" fill="#ECB22E"/>
<path d="M32.7831 53.4507C30.9559 53.4507 29.4743 51.9703 29.4743 50.1445C29.4743 48.3187 30.9559 46.8383 32.7831 46.8383H41.0552C42.8824 46.8383 44.364 48.3187 44.364 50.1445C44.364 51.9703 42.8824 53.4507 41.0552 53.4507H32.7831Z" fill="#ECB22E"/>
</svg>
