<svg width="150" height="44" viewBox="0 0 150 44" fill="none" xmlns="http://www.w3.org/2000/svg">
<g clip-path="url(#clip0_70_108)">
<path d="M44.682 10.8446H51.1778C51.368 10.8446 51.5039 11.0081 51.5039 11.1715V32.3126C51.5039 32.5033 51.3408 32.6395 51.1778 32.6395H44.682C44.4918 32.6395 44.3559 32.476 44.3559 32.3126V11.1988C44.3559 11.0081 44.4918 10.8446 44.682 10.8446Z" fill="#E32851"/>
<path d="M70.0127 11.0626L65.7184 22.5049C65.6912 22.5593 65.6097 22.5593 65.5825 22.5049L61.2611 11.0626C61.2067 10.9263 61.098 10.8446 60.9349 10.8446H53.8141C53.5695 10.8446 53.4064 11.0898 53.4879 11.3077L62.0493 32.4215C62.1036 32.5577 62.2124 32.6395 62.3754 32.6395H68.6266C68.7625 32.6395 68.8983 32.5577 68.9527 32.4215L77.5412 11.335C77.6227 11.117 77.4597 10.8718 77.2151 10.8718H70.2845C70.1758 10.8446 70.0399 10.9536 70.0127 11.0626Z" fill="#FF932C"/>
<path d="M138.259 10.5177C131.464 10.5177 126.517 15.3126 126.517 21.7693C126.517 28.226 131.464 33.0209 138.259 33.0209C144.972 33.0209 150 28.1715 150 21.7693C150 15.3398 144.999 10.5177 138.259 10.5177ZM138.259 26.8911C135.595 26.8911 133.829 24.8478 133.829 21.7693C133.829 18.6908 135.595 16.6475 138.259 16.6475C140.895 16.6475 142.689 18.6908 142.689 21.7693C142.689 24.8206 140.895 26.8911 138.259 26.8911Z" fill="#0088D9"/>
<path d="M41.9641 10.7628C41.7739 10.7083 41.5293 10.6539 41.2847 10.5994C40.877 10.5449 36.4468 10.0272 34.0007 13.351C33.9464 13.4055 33.8648 13.3782 33.8648 13.2965V11.5529V11.1987C33.8648 11.008 33.7018 10.8718 33.5387 10.8718H27.0158C26.8255 10.8718 26.6896 11.0353 26.6896 11.1987V32.3125C26.6896 32.5032 26.8527 32.6394 27.0158 32.6394H33.5115C33.7018 32.6394 33.8377 32.476 33.8377 32.3125V24.4664C33.8377 18.609 36.5555 17.1378 39.2191 17.1378C39.5452 17.1378 40.4421 17.1378 41.7467 17.492C41.9641 17.5465 42.1816 17.383 42.1816 17.1651V11.0625C42.1816 10.9263 42.1 10.7901 41.9641 10.7628Z" fill="#E32851"/>
<path d="M47.9435 0.982422C45.6604 0.982422 43.8395 2.75326 43.8395 4.95999C43.8395 7.16672 45.6876 8.93755 47.9435 8.93755C50.2265 8.93755 52.0475 7.16672 52.0475 4.95999C52.0475 2.75326 50.1993 0.982422 47.9435 0.982422Z" fill="#E32851"/>
<path d="M99.8279 10.8447H93.3321C93.1419 10.8447 93.006 11.0081 93.006 11.1716V13.2421C93.006 13.3238 92.8973 13.3511 92.8701 13.2693C90.5327 8.33825 76.59 9.29178 76.59 21.7149C76.59 33.3206 88.4943 35.3911 92.8701 30.5418C92.9244 30.4873 93.006 30.5145 93.006 30.5963V32.2854C93.006 32.4761 93.1691 32.6123 93.3321 32.6123H99.8279C100.018 32.6123 100.154 32.4488 100.154 32.2854V11.1988C100.154 11.0081 100.018 10.8447 99.8279 10.8447ZM88.4671 26.8639C85.6133 26.8639 83.6021 24.8479 83.6021 21.7693C83.6021 18.6908 85.6133 16.6203 88.4671 16.6203C91.3752 16.6203 93.3321 18.7181 93.3321 21.7693C93.3321 24.8206 91.3752 26.8639 88.4671 26.8639Z" fill="#FF932C"/>
<path d="M124.398 10.8446H117.902C117.712 10.8446 117.576 11.008 117.576 11.1715V13.242C117.576 13.3237 117.467 13.351 117.44 13.2693C115.075 8.28368 102.111 9.53688 102.111 21.0882C102.111 32.4215 113.934 33.375 117.467 30.0513C117.521 29.9968 117.603 30.0513 117.603 30.1058V31.1138C117.521 35.9359 111.488 38.0064 108.416 34.3558C108.308 34.2196 108.117 34.1923 107.982 34.3013L102.464 37.9247C102.301 38.0337 102.274 38.2516 102.383 38.4151C109.395 48.0048 124.642 43.1282 124.751 31.2228V11.1987C124.751 11.008 124.588 10.8446 124.398 10.8446ZM113.662 25.7196C111.08 25.7196 109.259 23.9215 109.259 21.1154C109.259 18.3093 111.053 16.484 113.662 16.484C116.298 16.484 118.065 18.3638 118.065 21.1154C118.065 23.867 116.298 25.7196 113.662 25.7196Z" fill="#0088D9"/>
<path d="M24.4066 20.734H17.8837C17.7206 20.734 17.5575 20.8703 17.5575 21.061C17.3401 23.7308 15.1114 25.8558 12.3935 25.8558C9.10491 25.8286 7.77315 23.0497 7.77315 23.0497C7.20239 21.9872 7.17521 20.952 7.17521 20.734C7.17521 20.7068 7.20239 20.6796 7.20239 20.6796L9.07773 19.6443L20.8733 13.1058C21.0636 12.9969 21.1723 12.8062 21.1723 12.6154V5.5866C21.1723 5.34141 20.9005 5.17795 20.6831 5.28692L7.28393 12.6972C7.22957 12.7244 7.17521 12.6972 7.17521 12.6427V1.58179C7.17521 1.30936 6.87625 1.1459 6.65881 1.30936L0.24461 5.45038C0.0815365 5.55936 0 5.72282 0 5.91353V20.7068C0.0543577 27.5177 5.57166 33.0209 12.3664 33.0209C19.0524 33.0209 24.4881 27.7084 24.7327 21.061C24.7599 20.8975 24.5968 20.734 24.4066 20.734Z" fill="#E32851"/>
</g>
<defs>
<clipPath id="clip0_70_108">
<rect width="150" height="42.5" fill="white" transform="translate(0 0.982422)"/>
</clipPath>
</defs>
</svg>
