<svg width="110" height="46" viewBox="0 0 110 46" fill="none" xmlns="http://www.w3.org/2000/svg">
<g clip-path="url(#clip0_70_86)">
<path d="M64.9305 37.7935C64.2565 36.6209 63.852 35.313 63.6723 33.7796C63.6274 33.5541 63.5375 33.3737 63.3578 33.2384C63.223 33.1482 63.0432 33.1031 62.9084 33.1031C62.8635 33.1031 62.8185 33.1031 62.7736 33.1031C62.504 33.1482 62.1895 33.1933 61.9199 33.1933C61.0212 33.1933 60.3471 33.058 60.3471 31.1638V29.3598V3.87834C60.3471 3.47244 60.0326 3.15674 59.6282 3.15674H54.5056C54.1012 3.15674 53.7867 3.47244 53.7867 3.87834V31.7501C53.7867 33.8247 53.9664 35.4032 54.955 36.8464C56.1233 38.47 58.4599 39.4171 60.6167 39.4171C60.7066 39.4171 60.8414 39.4171 60.9313 39.4171C62.2344 39.4171 63.4926 39.2818 64.5261 38.921C64.7507 38.8308 64.9305 38.6955 64.9754 38.47C65.0653 38.2445 65.0203 38.019 64.9305 37.7935Z" fill="#6D1ED4"/>
<path d="M78.8602 36.8915C77.9165 35.4934 77.602 35.2679 76.9729 33.7796C76.883 33.5992 76.8381 33.3737 76.6584 33.2384C76.5236 33.1482 76.3888 33.1031 76.209 33.1031C76.1641 33.1031 76.1192 33.1031 76.0742 33.1031C75.8046 33.1482 75.4901 33.1933 75.2205 33.1933C74.3218 33.1933 73.6477 33.058 73.6477 31.1638V29.3598V3.87834C73.6477 3.47244 73.3332 3.15674 72.9288 3.15674H67.8062C67.4018 3.15674 67.0873 3.47244 67.0873 3.87834V31.7501C67.0873 33.8247 67.267 35.4032 68.2556 36.8464C69.4239 38.47 71.7605 39.4171 73.9174 39.4171C74.0072 39.4171 74.142 39.4171 74.2319 39.4171C75.535 39.4171 76.7932 39.2818 77.8267 38.921C78.0513 38.8308 78.8152 38.47 78.995 38.2896C79.4893 37.7484 78.95 37.0719 78.8602 36.8915Z" fill="#6D1ED4"/>
<path d="M32.2181 22.685C32.7573 19.7535 35.0041 17.8593 38.1944 17.8593C41.3848 17.8593 43.5417 19.6182 44.0809 22.685H32.2181ZM38.1046 12.312C34.1953 12.312 30.915 13.665 28.5335 16.2808C26.2868 18.7162 25.0735 22.1889 25.0735 25.9773C25.0735 29.8559 26.2868 33.1482 28.5784 35.5385C31.0049 38.0641 34.4649 39.4171 38.5989 39.4171C43.0474 39.4171 46.8219 37.8386 49.7426 34.7718C50.0123 34.5012 50.0123 33.96 49.6977 33.7796C49.3832 33.5992 47.8554 32.5619 46.3276 30.5324C46.1479 30.3971 46.0131 30.352 45.8333 30.352C45.6536 30.352 45.4739 30.4422 45.3391 30.5775C43.5866 32.4717 41.3399 33.2384 38.7337 33.2384C34.8693 33.2384 32.4877 31.4344 32.0384 27.8715H49.9224C50.2819 27.8715 50.5964 27.6009 50.6413 27.2401C50.6863 26.6538 50.7312 26.0224 50.7312 25.391C50.7312 21.7379 49.518 18.4005 47.3611 16.1004C45.1144 13.5748 41.8791 12.312 38.1046 12.312Z" fill="#6D1ED4"/>
<path d="M85.5105 22.685C86.0497 19.7535 88.2964 17.8593 91.4868 17.8593C94.6772 17.8593 96.834 19.6182 97.3732 22.685H85.5105ZM91.3969 12.312C87.4876 12.312 84.2074 13.665 81.8258 16.2808C79.5791 18.7162 78.3659 22.1889 78.3659 25.9773C78.3659 29.8559 79.5791 33.1482 81.8708 35.5385C84.2972 38.0641 87.7572 39.4171 91.8912 39.4171C96.3397 39.4171 100.114 37.8386 103.035 34.7718C103.305 34.5012 103.305 33.96 102.99 33.7796C102.676 33.5992 101.148 32.5619 99.62 30.5324C99.4402 30.3971 99.3054 30.352 99.1257 30.352C98.9459 30.352 98.7662 30.4422 98.6314 30.5775C96.8789 32.4717 94.6322 33.2384 92.026 33.2384C88.1616 33.2384 85.7801 31.4344 85.3307 27.8715H103.215C103.574 27.8715 103.889 27.6009 103.934 27.2401C103.979 26.6538 104.024 26.0224 104.024 25.391C104.024 21.7379 102.81 18.4005 100.653 16.1004C98.3618 13.5748 95.1714 12.312 91.3969 12.312Z" fill="#6D1ED4"/>
<path d="M26.3766 37.6134C26.3317 37.5683 26.3317 37.5683 26.2868 37.5232L26.2418 37.4781C25.0286 36.2153 24.085 34.727 23.366 33.0583C23.2761 32.7877 23.0065 32.6073 22.7369 32.6073H22.1528H19.5466H9.25654L25.7026 11.4554C25.7925 11.3201 25.8374 11.1848 25.8374 11.0044V6.9003C25.8374 6.4944 25.5229 6.1787 25.1185 6.1787H17.4346H17.1201H16.2214V0.3608C16.2214 0.1804 16.0417 0 15.8619 0H15.7271H15.5923H10.7394H10.5596H10.4248C10.2451 0 10.0654 0.1804 10.0654 0.3608V6.2689H8.80719H8.53758H1.39297C0.988562 6.2689 0.67402 6.5846 0.67402 6.9905V11.726C0.67402 12.1319 0.988562 12.4476 1.39297 12.4476H16.491L0.134804 33.374C0.0449346 33.5093 0 33.6897 0 33.825V38.1095C0 38.5154 0.314543 38.8311 0.718954 38.8311H10.1103V44.7392C10.1103 44.9196 10.29 45.1 10.4698 45.1H10.6046H10.7843H15.6373H15.7271H15.9069C16.0866 45.1 16.2663 44.9196 16.2663 44.7392V38.8311H20.2206H25.2982H25.8824C26.152 38.8311 26.4216 38.6507 26.5114 38.3801C26.6462 38.1546 26.5564 37.8389 26.3766 37.6134Z" fill="#6D1ED4"/>
<path d="M106.315 9.11047H106.899C107.034 9.11047 107.124 9.11047 107.259 9.11047C107.394 9.11047 107.484 9.06537 107.573 9.02027C107.663 8.97517 107.708 8.93007 107.798 8.83987C107.843 8.74967 107.888 8.65946 107.888 8.52416C107.888 8.38886 107.843 8.29866 107.798 8.25356C107.753 8.16336 107.708 8.11826 107.618 8.07316C107.528 8.02806 107.439 8.02807 107.349 7.98297C107.259 7.98297 107.169 7.98297 107.079 7.98297H106.315V9.11047ZM105.866 7.53197H107.124C107.528 7.53197 107.843 7.62217 108.068 7.75747C108.247 7.93787 108.382 8.16336 108.382 8.52416C108.382 8.83986 108.292 9.06536 108.113 9.20066C107.933 9.33596 107.708 9.42617 107.439 9.47127L108.427 11.0047H107.888L106.944 9.51637H106.315V11.0047H105.821V7.53197H105.866ZM104.428 9.29087C104.428 9.65167 104.473 9.96736 104.608 10.2831C104.743 10.5988 104.922 10.8694 105.147 11.0949C105.372 11.3204 105.641 11.5008 105.956 11.6361C106.27 11.7714 106.585 11.8165 106.944 11.8165C107.304 11.8165 107.618 11.7714 107.933 11.6361C108.247 11.5008 108.517 11.3204 108.742 11.0949C108.966 10.8694 109.146 10.5988 109.281 10.2831C109.416 9.96736 109.461 9.60656 109.461 9.24576C109.461 8.88496 109.371 8.52416 109.281 8.25356C109.146 7.93786 108.966 7.66727 108.742 7.44177C108.517 7.21627 108.247 7.03587 107.933 6.90057C107.618 6.76527 107.304 6.72017 106.944 6.72017C106.585 6.72017 106.27 6.81037 105.956 6.90057C105.641 7.03587 105.372 7.21627 105.147 7.44177C104.922 7.66727 104.743 7.93786 104.608 8.25356C104.518 8.56926 104.428 8.93007 104.428 9.29087ZM103.934 9.29087C103.934 8.83987 104.024 8.47906 104.158 8.07316C104.338 7.71236 104.518 7.39667 104.832 7.12607C105.102 6.85547 105.417 6.62997 105.776 6.49467C106.136 6.35937 106.54 6.26917 106.944 6.26917C107.349 6.26917 107.753 6.35937 108.113 6.49467C108.472 6.62997 108.787 6.85547 109.056 7.12607C109.326 7.39667 109.551 7.71236 109.73 8.07316C109.91 8.43396 109.955 8.83986 109.955 9.24576C109.955 9.69676 109.865 10.0576 109.73 10.4635C109.551 10.8243 109.371 11.14 109.056 11.4106C108.787 11.6812 108.472 11.9067 108.113 12.042C107.753 12.1773 107.349 12.2675 106.944 12.2675C106.54 12.2675 106.136 12.1773 105.776 12.042C105.417 11.9067 105.102 11.6812 104.832 11.4106C104.563 11.14 104.338 10.8243 104.158 10.4635C104.024 10.1027 103.934 9.69677 103.934 9.29087Z" fill="#6D1ED4"/>
</g>
<defs>
<clipPath id="clip0_70_86">
<rect width="110" height="45.1" fill="white"/>
</clipPath>
</defs>
</svg>
